<svg width="344" height="596" viewBox="0 0 344 596" fill="none" xmlns="http://www.w3.org/2000/svg" transform="translate(0, 5)">
<path d="M138.208 158.22L68.833 198.345L68.458 119.22L137.539 80.261L137.833 80.095V40.345L34.958 99.845L34.583 258.345L138.208 199.22L138.333 277.095L37.306 338.248L35.083 457.469L68.083 436.594L67.458 358.094L138.208 317.97V397.719L171.458 377.219L171.958 99.845L138.316 80.597L138.208 158.22Z" fill="#F04F52"/>
<path d="M241.333 98.553L274.569 80.619L274.791 119.095L241.458 139.47L241.333 98.553Z" fill="#F04F52"/>
<path d="M276.791 158.428L309 139.553L308.666 218.22L275 238.22L276.791 158.428Z" fill="#F04F52"/>
<path d="M309.666 259.887L311.666 495.888L208.666 556.553L206.666 595.219L343.333 516.219L343.666 240.22L309.666 259.887Z" fill="#F04F52"/>
<path d="M138.208 199.22L138.38 277.111L102.666 257.22L103.714 218.71L138.208 199.22Z" fill="#EC2728"/>
<path d="M137.833 40.345L137.539 80.261L205.333 119.22L205.999 158.553L239.999 178.553L240.666 258.553L275.333 278.553V477.219L311.666 495.888L310.666 258.553L275.333 237.22L277.188 158.165L241.458 139.47L241.333 98.553L137.833 40.345Z" fill="#EC2728"/>
<path d="M138.294 79.845L138.946 158.39L104 139.887L103.333 98.553L138.294 79.845Z" fill="#EC2728"/>
<path d="M138.208 317.97L138.666 397.219L275.333 477.219L243.333 497.885L102.666 418.554L103.934 337.366L138.208 317.97Z" fill="#EC2728"/>
<path d="M35.271 99.815L34.666 258.553L0 239.22L1.283 79.799L35.271 99.815Z" fill="#EC2728"/>
<path d="M1.333 317.22L37.306 338.248L35.333 457.219L208.666 555.885L206.666 595.219L0 475.885" fill="#EC2728"/>
<path d="M1.2832 79.799L35.2712 99.815L137.645 40.31L241.333 98.553L274.569 80.619L137.645 0L1.2832 79.799Z" fill="#F48989"/>
<path d="M275.333 477.219L275.477 437.496L171.333 377.219L138.666 397.219L275.333 477.219Z" fill="#F48989"/>
<path d="M274.666 238.553L308.666 218.553L344 239.887L310 259.887L274.666 238.553Z" fill="#F48989"/>
<path d="M241.458 139.47L274.791 119.095L309 139.553L276.791 158.428L241.458 139.47Z" fill="#F48989"/>
<path d="M138.568 158.265L104 139.887L68.666 159.553V198.553L138 158.553" fill="#F48989"/>
<path d="M102.666 257.22L138.333 277.095L37.306 338.248L1.33301 317.22L102.666 257.22Z" fill="#F48989"/>
<path d="M275.333 477.219L311.666 495.888L208.666 556.553L35.333 457.219L68.083 436.594L206.666 516.553L275.333 477.219Z" fill="#F48989"/>
</svg>
