<?xml version="1.0"?>
<svg width="800" height="400" xmlns="http://www.w3.org/2000/svg" xmlns:svg="http://www.w3.org/2000/svg" enable-background="new 0 0 3600 3600" version="1.1" xml:space="preserve">
 <title>2</title>
 <style type="text/css">.st0{fill:#556BAA;}
	.st1{fill:#FFFFFF;stroke:#FFFFFF;stroke-width:2;stroke-miterlimit:10;}</style>
 <g class="layer">
  <title>Layer 1</title>
  <rect class="st0" height="400" id="svg_1" transform="matrix(1 0 0 1 0 0)" width="800" x="0" y="0"/>
  <g id="svg_2">
   <path class="st1" d="m361.6,206.21l-0.03,0.07l-0.89,2.1c-3.15,-1.31 -6.05,-2.74 -8.66,-4.28c-9.55,-5.62 -15.14,-12.58 -14.82,-19.9l0,-0.01c-0.01,-0.19 -0.01,-0.39 -0.01,-0.58c0,-0.12 0,-0.23 0.01,-0.35c0.86,-0.27 1.74,-0.54 2.63,-0.79c-0.09,0.63 -0.11,1.28 -0.06,1.95c-0.06,3.29 1.44,6.48 4.06,9.19c2.49,3.23 6.01,6.39 10.3,9c0.05,0.03 0.09,0.06 0.14,0.08c2.44,1.48 4.92,2.65 7.34,3.52z" id="svg_3"/>
   <path class="st1" d="m339.76,184.42c-0.05,-0.67 -0.03,-1.32 0.06,-1.95c7.17,-2.08 15.13,-3.66 23.58,-4.62l-0.04,3.41l0,0.31l-0.01,0.67l-0.21,17.01c-3.48,0.96 -6.48,2.11 -8.88,3.43c-0.05,-0.03 -0.09,-0.05 -0.14,-0.08c-4.29,-2.62 -7.81,-5.77 -10.3,-9c-2.62,-2.71 -4.12,-5.9 -4.06,-9.19z" id="svg_4"/>
   <g id="svg_5">
    <path class="st1" d="m439.91,209.13c-0.01,0.19 -0.04,0.38 -0.06,0.57c-4.79,1.13 -9.92,2.03 -15.31,2.65l0.08,-21.2c9.91,5.02 15.82,11.45 15.28,17.98z" id="svg_6"/>
    <path class="st1" d="m475.81,183.61c0,5.28 -3.2,10.24 -8.81,14.54c-5.75,4.4 -14.03,8.12 -24,10.77c0.03,-1.45 -0.2,-2.88 -0.67,-4.3c-1.95,-5.91 -8.04,-11.47 -16.85,-15.84c4.13,-2.36 6.51,-5.12 6.51,-8.09c0,-8.6 -20.08,-15.58 -44.85,-15.58c-17.59,0 -32.82,3.52 -40.17,8.63c-2.34,1.35 -4.22,3.05 -5.47,5.01c-0.26,0.3 -0.5,0.62 -0.71,0.97c-0.51,0.83 -0.83,1.75 -0.97,2.73c-0.89,0.26 -1.76,0.52 -2.63,0.79c0.43,-16.28 31.3,-29.42 69.31,-29.42c38.28,0 69.31,13.33 69.31,29.77z" id="svg_7"/>
    <path class="st1" d="m439.91,209.13c0.54,-6.54 -5.37,-12.96 -15.29,-17.98c-2.66,-1.35 -5.61,-2.6 -8.8,-3.72c-1.72,-0.61 -3.52,-1.18 -5.37,-1.71l0.61,-2.33c5.33,1.46 10.19,3.29 14.42,5.39c8.81,4.37 14.9,9.93 16.85,15.84c0.47,1.42 0.7,2.85 0.67,4.3c-1.03,0.27 -2.08,0.54 -3.15,0.79c0.02,-0.19 0.04,-0.38 0.06,-0.57z" id="svg_8"/>
    <path class="st1" d="m443,208.92c0,0.25 -0.02,0.5 -0.04,0.75c-0.1,1.19 -0.37,2.34 -0.8,3.46c-3.46,14.65 -33.09,26.09 -69.12,26.09c-17.28,0 -33.08,-2.63 -45.23,-6.98c-13.19,-4.72 -22.08,-11.48 -23.88,-19.1c-0.1,-0.51 -0.16,-1.03 -0.19,-1.56c-0.26,-3.99 1.31,-7.92 4.37,-11.61c0,0 0.01,-0.01 0.01,-0.01c5.5,-6.63 15.82,-12.52 29.08,-16.69c0,0.12 -0.01,0.23 -0.01,0.35c0,0.19 0,0.39 0.01,0.58l0,0.01c-0.32,7.32 5.27,14.28 14.82,19.9c-2.59,1.87 -4.08,4.01 -4.19,6.32c-0.31,6.57 10.59,12.77 26.52,16.08c3.19,0.52 6.49,0.92 9.88,1.2c19.56,1.61 37.06,-1.45 47.02,-7.35c3.32,-1.96 5.81,-4.25 7.25,-6.78c0.44,-0.77 0.79,-1.56 1.03,-2.38l0,0c0.14,-0.49 0.25,-0.98 0.32,-1.48c1.07,-0.25 2.12,-0.52 3.15,-0.79z" id="svg_9"/>
   </g>
  </g>
 </g>
</svg>