<?xml version="1.0" encoding="utf-8"?>
<!-- Generator: Adobe Illustrator 26.2.1, SVG Export Plug-In . SVG Version: 6.00 Build 0)  -->
<svg version="1.1" id="레이어_1" xmlns="http://www.w3.org/2000/svg" xmlns:xlink="http://www.w3.org/1999/xlink" x="0px"
	 y="0px" viewBox="0 0 269.29 141.73" style="enable-background:new 0 0 269.29 141.73;" xml:space="preserve">
<style type="text/css">
	.st0{fill:#FFFFFF;stroke:#FFFFFF;stroke-width:2;stroke-miterlimit:10;}
</style>
<g>
	<path class="st0" d="M94.42,83.61l-0.04,0.09l-1.28,2.76c-4.5-1.73-8.64-3.61-12.36-5.63C67.1,73.43,59.1,64.27,59.57,54.64v-0.01
		c-0.02-0.26-0.02-0.51-0.02-0.77c0-0.15,0-0.31,0.01-0.46c1.23-0.36,2.48-0.71,3.75-1.05c-0.13,0.82-0.16,1.68-0.09,2.57
		c-0.08,4.33,2.06,8.52,5.8,12.1c3.55,4.25,8.59,8.4,14.71,11.85c0.07,0.04,0.13,0.07,0.2,0.11C87.42,80.92,90.96,82.46,94.42,83.61
		z"/>
	<path class="st0" d="M63.22,54.92c-0.07-0.88-0.04-1.74,0.09-2.57c10.25-2.73,21.61-4.82,33.69-6.08l-0.06,4.49l0,0.4l-0.01,0.89
		l-0.3,22.39c-4.97,1.26-9.26,2.78-12.69,4.52c-0.07-0.04-0.13-0.07-0.2-0.11c-6.13-3.44-11.16-7.59-14.71-11.85
		C65.28,63.45,63.14,59.26,63.22,54.92z"/>
	<g>
		<path class="st0" d="M206.3,87.45c-0.02,0.25-0.05,0.5-0.09,0.75c-6.84,1.49-14.17,2.67-21.87,3.49l0.12-27.91
			C198.62,70.4,207.06,78.85,206.3,87.45z"/>
		<path class="st0" d="M257.58,53.86c0,6.95-4.57,13.47-12.59,19.13c-8.21,5.79-20.04,10.68-34.28,14.18
			c0.04-1.9-0.28-3.79-0.95-5.65c-2.78-7.78-11.49-15.09-24.07-20.85c5.9-3.1,9.31-6.74,9.31-10.64c0-11.32-28.69-20.5-64.08-20.5
			c-25.13,0-46.88,4.63-57.38,11.36c-3.34,1.77-6.02,4.01-7.82,6.59c-0.38,0.4-0.72,0.82-1.02,1.28c-0.73,1.1-1.18,2.3-1.39,3.6
			c-1.27,0.34-2.52,0.69-3.75,1.05c0.62-21.42,44.71-38.71,99.01-38.71C213.25,14.69,257.58,32.23,257.58,53.86z"/>
		<path class="st0" d="M206.3,87.45c0.77-8.6-7.67-17.05-21.84-23.67c-3.8-1.78-8.02-3.42-12.58-4.9c-2.46-0.8-5.03-1.55-7.68-2.25
			l0.87-3.07c7.61,1.92,14.56,4.33,20.61,7.09c12.58,5.75,21.29,13.06,24.07,20.85c0.67,1.86,0.99,3.75,0.95,5.65
			c-1.47,0.36-2.97,0.71-4.5,1.04C206.24,87.96,206.27,87.71,206.3,87.45z"/>
		<path class="st0" d="M210.7,87.17c-0.01,0.33-0.02,0.66-0.05,0.99c-0.14,1.56-0.52,3.08-1.14,4.55
			c-4.95,19.27-47.27,34.33-98.74,34.33c-24.68,0-47.26-3.46-64.62-9.19c-18.84-6.22-31.54-15.11-34.12-25.13
			c-0.14-0.68-0.23-1.36-0.28-2.05c-0.37-5.25,1.87-10.42,6.24-15.28c0.01-0.01,0.01-0.01,0.02-0.02
			c7.86-8.73,22.61-16.47,41.55-21.96c-0.01,0.15-0.01,0.31-0.01,0.46c0,0.26,0.01,0.51,0.02,0.77v0.01
			c-0.46,9.63,7.53,18.79,21.17,26.19c-3.7,2.46-5.83,5.27-5.99,8.32c-0.45,8.65,15.12,16.8,37.89,21.16
			c4.56,0.68,9.27,1.21,14.11,1.58c27.95,2.11,52.94-1.91,67.17-9.67c4.75-2.59,8.3-5.59,10.36-8.92c0.63-1.01,1.12-2.06,1.47-3.13
			v0c0.21-0.64,0.36-1.29,0.46-1.95C207.73,87.88,209.23,87.53,210.7,87.17z"/>
	</g>
</g>
</svg>
