<?xml version="1.0" encoding="utf-8"?>
<!-- Generator: Adobe Illustrator 26.2.1, SVG Export Plug-In . SVG Version: 6.00 Build 0)  -->
<svg version="1.1" id="레이어_1" xmlns="http://www.w3.org/2000/svg" xmlns:xlink="http://www.w3.org/1999/xlink" x="0px"
	 y="0px" viewBox="0 0 3600 3600" style="enable-background:new 0 0 3600 3600;" xml:space="preserve">
<style type="text/css">
	.st0{fill:#556BAA;}
	.st1{fill:#FFFFFF;stroke:#FFFFFF;stroke-width:2;stroke-miterlimit:10;}
</style>
<rect y="0.1" class="st0" width="3600" height="3600"/>
<g>
	<path class="st1" d="M1665.55,1846.22l-0.14,0.32l-4.27,10.02c-15.05-6.26-28.89-13.1-41.33-20.43
		c-45.58-26.83-72.3-60.08-70.75-95.01v-0.03c-0.05-0.93-0.07-1.85-0.07-2.79c0-0.55,0.01-1.11,0.03-1.67
		c4.12-1.3,8.31-2.56,12.54-3.79c-0.43,2.99-0.52,6.11-0.29,9.31c-0.27,15.73,6.88,30.93,19.38,43.88
		c11.87,15.43,28.7,30.49,49.18,42.98c0.22,0.14,0.44,0.27,0.66,0.4C1642.15,1836.47,1653.99,1842.08,1665.55,1846.22z"/>
	<path class="st1" d="M1561.28,1742.16c-0.24-3.2-0.14-6.32,0.29-9.31c34.25-9.91,72.22-17.49,112.6-22.04l-0.2,16.29l-0.01,1.46
		l-0.04,3.22l-0.99,81.24c-16.61,4.56-30.95,10.08-42.42,16.4c-0.22-0.13-0.44-0.26-0.66-0.4c-20.48-12.49-37.31-27.55-49.18-42.98
		C1568.16,1773.09,1561.01,1757.89,1561.28,1742.16z"/>
	<g>
		<path class="st1" d="M2039.48,1860.18c-0.07,0.92-0.18,1.83-0.3,2.74c-22.85,5.4-47.35,9.68-73.08,12.64l0.4-101.24
			C2013.83,1798.31,2042.03,1828.97,2039.48,1860.18z"/>
		<path class="st1" d="M2210.87,1738.31c0,25.2-15.28,48.88-42.08,69.41c-27.45,21.02-67,38.75-114.59,51.43
			c0.14-6.9-0.95-13.75-3.18-20.51c-9.3-28.24-38.41-54.76-80.46-75.63c19.74-11.25,31.1-24.47,31.1-38.62
			c0-41.07-95.88-74.37-214.16-74.37c-83.99,0-156.69,16.79-191.78,41.22c-11.15,6.43-20.13,14.54-26.12,23.92
			c-1.26,1.44-2.4,2.98-3.41,4.63c-2.43,3.97-3.95,8.36-4.63,13.05c-4.24,1.23-8.42,2.49-12.54,3.79
			c2.07-77.72,149.43-140.45,330.91-140.45C2062.7,1596.19,2210.87,1659.83,2210.87,1738.31z"/>
		<path class="st1" d="M2039.48,1860.18c2.56-31.21-25.65-61.87-72.99-85.86c-12.71-6.44-26.8-12.4-42.04-17.76
			c-8.23-2.9-16.8-5.62-25.66-8.15l2.92-11.14c25.44,6.98,48.65,15.7,68.87,25.73c42.05,20.87,71.16,47.4,80.46,75.63
			c2.23,6.76,3.32,13.61,3.18,20.51c-4.92,1.31-9.94,2.56-15.03,3.76C2039.3,1862.01,2039.4,1861.1,2039.48,1860.18z"/>
		<path class="st1" d="M2054.21,1859.15c-0.02,1.19-0.08,2.39-0.18,3.58c-0.47,5.68-1.75,11.19-3.81,16.52
			c-16.54,69.93-157.97,124.56-330.01,124.56c-82.49,0-157.95-12.57-215.97-33.34c-62.98-22.56-105.43-54.8-114.04-91.19
			c-0.46-2.45-0.77-4.93-0.93-7.44c-1.24-19.06,6.24-37.81,20.85-55.45c0.02-0.02,0.04-0.04,0.05-0.06
			c26.27-31.66,75.55-59.76,138.86-79.68c-0.02,0.55-0.03,1.11-0.03,1.67c0,0.93,0.02,1.86,0.07,2.79v0.03
			c-1.55,34.93,25.17,68.18,70.75,95.01c-12.36,8.94-19.48,19.13-20.01,30.18c-1.49,31.38,50.54,60.95,126.63,76.77
			c15.23,2.47,30.99,4.4,47.15,5.73c93.41,7.67,176.93-6.93,224.5-35.08c15.86-9.38,27.73-20.27,34.64-32.36
			c2.11-3.68,3.75-7.47,4.91-11.37V1870c0.69-2.32,1.21-4.68,1.54-7.08C2044.27,1861.72,2049.28,1860.46,2054.21,1859.15z"/>
	</g>
</g>
</svg>
